# xmcd CD database file generated by GCD 2.91
# 
# Track frame offsets:
#       150
#       18722
#       34575
#       46735
#       68205
#       88735
#       100597
#       114527
#       135182
#       155497
#       177897
# 
# Disc length: 2599 seconds
# 
# Revision: 0
# Processed by: cddbd v1.4PL0 Copyright (c) Steve Scherf et al.
# Submitted via: GCD 2.91
# 
DISCID=820a250b
DTITLE=Victor Mecyssne - Hush Money
DYEAR=1900
DGENRE=
TTITLE0=A Girl That's Hip
TTITLE1=They Were Playin' the Blues
TTITLE2=Drinkin' on a Dollar
TTITLE3=Uma's Bluebirds - Lower Broadway
TTITLE4=You're Gonna Know
TTITLE5=Register One
TTITLE6=That Good Thing
TTITLE7=Small Town Grapevine
TTITLE8=Relax
TTITLE9=Aprés Coucher du Soleil
TTITLE10=Going to New Orleans
EXTD=
EXTT0=
EXTT1=
EXTT2=
EXTT3=
EXTT4=
EXTT5=
EXTT6=
EXTT7=
EXTT8=
EXTT9=
EXTT10=
PLAYORDER=
